<svg width="75" height="75" viewBox="0 0 75 75" fill="none" xmlns="http://www.w3.org/2000/svg">
<path fill-rule="evenodd" clip-rule="evenodd" d="M38.0755 0C37.3767 0 36.685 0.137317 36.0748 0.405594C34.396 1.14029 33.7386 2.69026 34.4186 4.25821L34.6263 4.74432L34.9912 5.62828L35.0537 5.77601C35.4696 6.76344 35.6307 7.29901 35.6307 7.82399V8.11176C35.6307 8.56202 35.2844 8.93599 34.819 8.97973C31.9868 9.24823 29.2102 9.93356 26.5873 11.0123C26.1711 11.1832 25.7043 11.0279 25.486 10.6503L25.278 10.2896C25.0951 9.97268 24.9692 9.57721 24.8707 9.03184L24.7767 8.41131L24.545 6.59706C24.3513 4.89751 23.0066 3.88406 21.1819 4.08732C20.5199 4.16089 19.8533 4.38764 19.2483 4.73702C18.6451 5.08485 18.1155 5.54847 17.7193 6.08581C16.6318 7.56602 16.8382 9.23663 18.2126 10.2529L18.6338 10.5698L19.6848 11.3757C20.4057 11.9294 20.7998 12.3128 21.0434 12.7344L21.1864 12.9805C21.4089 13.3666 21.2944 13.8664 20.9114 14.1387C18.6092 15.7732 16.5535 17.7497 14.8101 20.0188C14.5359 20.3764 14.0527 20.476 13.676 20.2583L13.3107 20.0469C12.933 19.8289 12.5879 19.4928 12.1254 18.9116L11.1454 17.6376C11.0453 17.5062 10.9382 17.3639 10.8283 17.2154C9.81188 15.8409 8.14082 15.6349 6.66216 16.7228C6.12499 17.1174 5.66084 17.6473 5.31215 18.2521C4.96288 18.8593 4.73613 19.5252 4.66279 20.1866C4.4698 21.9312 5.38795 23.2367 6.95417 23.5162L9.32203 23.8271C10.0205 23.9326 10.4963 24.0678 10.8645 24.2806L11.1194 24.4279C11.5091 24.6527 11.6596 25.1405 11.4641 25.5641C10.2654 28.1709 9.47373 30.9098 9.10106 33.7042C9.04057 34.1528 8.67324 34.4796 8.23638 34.4796H7.82399C7.35151 34.4796 6.87045 34.3492 6.05912 34.0199L5.33319 33.716L4.9643 33.5668C4.75508 33.4809 4.51312 33.3792 4.25835 33.2687C2.69147 32.5874 1.14221 33.2442 0.405183 34.9247C0.137061 35.5359 0 36.2264 0 36.9256C0 37.6239 0.137132 38.3143 0.405224 38.9255C1.14221 40.6059 2.69147 41.2627 4.25915 40.581L4.96054 40.2848L5.62828 40.0099L5.77601 39.9474C6.76344 39.5315 7.29901 39.3704 7.82399 39.3704H8.11289C8.56203 39.3704 8.93605 39.7168 8.97974 40.1811C9.24932 43.0135 9.93431 45.7887 11.0121 48.4133C11.1838 48.8301 11.0284 49.2966 10.6503 49.5152L10.2895 49.7239C9.97558 49.905 9.58253 50.0302 9.04018 50.1285L8.59728 50.199L6.99777 50.4085L6.59706 50.4561C4.89736 50.6516 3.88562 51.9943 4.08722 53.8183C4.16246 54.4824 4.389 55.148 4.73662 55.751C5.08723 56.358 5.55012 56.8872 6.08729 57.2818C7.56513 58.3691 9.23567 58.1633 10.2535 56.7892L10.7129 56.1807L11.3706 55.3225C11.9266 54.5979 12.311 54.2024 12.7344 53.9577L12.9766 53.8187C13.3687 53.5923 13.8664 53.7061 14.1383 54.0891C15.774 56.3932 17.751 58.4487 20.0204 60.1903C20.3771 60.4643 20.4764 60.9468 20.2583 61.324L20.0461 61.6938C19.8302 62.0666 19.4939 62.4117 18.9158 62.8721L17.4332 64.0093C17.3625 64.0624 17.2897 64.1167 17.2154 64.1717C15.8413 65.1896 15.636 66.8597 16.7224 68.3384C17.1182 68.8758 17.6477 69.3393 18.2525 69.6886C18.8585 70.0386 19.5258 70.2652 20.1886 70.3374C21.9315 70.5316 23.2366 69.6128 23.5162 68.0459L23.8276 65.6787C23.9326 64.9815 24.068 64.5057 24.2812 64.1375L24.429 63.8817C24.6539 63.4918 25.1412 63.3412 25.5651 63.5364C28.1677 64.7342 30.9061 65.5257 33.7049 65.9C34.1532 65.96 34.4808 66.3281 34.4808 66.7647V67.1771C34.4808 67.6496 34.3503 68.1307 34.021 68.942L33.3845 70.4731C33.3468 70.5619 33.3081 70.652 33.2687 70.7428C32.5872 72.31 33.2445 73.8593 34.9262 74.5961C35.536 74.8636 36.2261 75 36.9245 75C37.6248 75 38.3149 74.8637 38.9255 74.5959C40.6067 73.8593 41.264 72.31 40.5821 70.742L40.2847 70.0401L40.0099 69.3728L39.9474 69.2251C39.5315 68.2377 39.3704 67.7021 39.3704 67.1771V66.8882C39.3704 66.4391 39.7179 66.064 40.1822 66.0203C43.0136 65.7518 45.7891 65.0667 48.4137 63.9877C48.8302 63.8169 49.2973 63.9725 49.5149 64.3494L49.7224 64.7103C49.9052 65.0266 50.0306 65.4202 50.129 65.9636L50.2105 66.4874L50.4575 68.405C50.6509 70.1025 51.9946 71.1159 53.8192 70.9127C54.4776 70.841 55.1441 70.6143 55.7511 70.2651C56.3582 69.9136 56.8873 69.4498 57.2818 68.9127C58.3692 67.4348 58.1643 65.7654 56.7904 64.7476L56.1815 64.2879L55.3221 63.6297C54.5987 63.0753 54.2028 62.6902 53.958 62.2661L53.8177 62.0227C53.5924 61.6331 53.7064 61.134 54.0883 60.8634C56.3932 59.2271 58.4487 57.2502 60.1903 54.9807C60.4644 54.624 60.9473 54.5245 61.3249 54.7422L61.6916 54.9538C62.0676 55.1711 62.4131 55.5077 62.8757 56.0887L64.0111 57.5686C64.0644 57.6394 64.1191 57.7123 64.1744 57.7868C65.1903 59.1599 66.86 59.3653 68.339 58.2771C68.8764 57.8813 69.3412 57.3512 69.689 56.7479C70.038 56.1437 70.2647 55.4771 70.3383 54.8147C70.5327 53.0699 69.6142 51.7651 68.047 51.4841L65.6705 51.1719C64.9787 51.0669 64.504 50.9313 64.1361 50.7191L63.8846 50.5731C63.4921 50.347 63.3413 49.8593 63.5362 49.4365C64.7339 46.8342 65.5256 44.0948 65.9 41.2963C65.96 40.8477 66.3282 40.5204 66.7647 40.5204H67.1783C67.65 40.5204 68.1307 40.6508 68.942 40.9801L69.6679 41.284L70.2555 41.5247C70.4082 41.5887 70.5726 41.6586 70.7428 41.7324C72.3106 42.4123 73.8591 41.7554 74.5959 40.0753C74.8637 39.465 75 38.7749 75 38.0755C75 37.3756 74.8635 36.6842 74.5955 36.0748C73.8595 34.395 72.311 33.7385 70.7429 34.4186L70.4928 34.5261L69.2251 35.0537C68.2377 35.4697 67.7024 35.6307 67.1783 35.6307H66.8894C66.4395 35.6307 66.0645 35.2834 66.0201 34.8177C65.7534 31.9907 65.0683 29.2149 63.989 26.5867C63.818 26.17 63.9731 25.7038 64.35 25.4865L64.7136 25.2756C65.0263 25.0954 65.4199 24.9702 65.9621 24.872L66.5838 24.7775L68.405 24.5436C70.1026 24.3504 71.1157 23.0067 70.9139 21.1827C70.8403 20.5187 70.6133 19.8516 70.2636 19.2474C69.9148 18.6435 69.4513 18.1141 68.9149 17.719C67.434 16.6321 65.7669 16.8372 64.7481 18.21L64.2879 18.8196L63.6246 19.6852C63.0724 20.4049 62.6884 20.7994 62.2661 21.0431L62.022 21.1845C61.634 21.408 61.1338 21.2938 60.863 20.9122C59.2293 18.6098 57.253 16.5547 54.9823 14.8101C54.6241 14.5352 54.5245 14.0527 54.7422 13.6751L54.953 13.3128C55.1717 12.933 55.5084 12.587 56.0881 12.1259L56.8609 11.5352L57.3635 11.1454C57.4949 11.0453 57.6372 10.9382 57.7858 10.8283C59.1603 9.81005 59.3662 8.13924 58.278 6.66173C57.8838 6.12515 57.3543 5.6612 56.7486 5.31141C56.1416 4.96143 55.4746 4.73454 54.8122 4.66254C53.0709 4.46839 51.7653 5.38685 51.4841 6.95306L51.1855 9.2425L51.1733 9.32378C51.0677 10.0206 50.9322 10.4968 50.7197 10.8659L50.5743 11.1165C50.3483 11.5087 49.8602 11.6595 49.435 11.4643C46.8322 10.2663 44.0936 9.47408 41.2974 9.09999C40.8474 9.03991 40.5204 8.67253 40.5204 8.23638V7.82399C40.5204 7.35151 40.6508 6.87045 40.9801 6.05912L41.284 5.33319L41.5247 4.7456C41.5887 4.59291 41.6586 4.42849 41.7324 4.25835C42.4138 2.69125 41.7556 1.14053 40.0745 0.404846C39.4658 0.137182 38.7751 0 38.0755 0ZM38.0765 2.11625C38.4904 2.11625 38.8911 2.19585 39.2254 2.34284C39.8622 2.62153 39.9982 2.94187 39.7924 3.41526L39.6239 3.8091L39.1481 4.95448C38.6265 6.19272 38.4051 6.92887 38.4051 7.82399V8.23638C38.4051 9.74063 39.5245 10.9982 41.0181 11.1976C43.6054 11.5437 46.1403 12.277 48.5522 13.3872C49.9641 14.0353 51.633 13.5199 52.4073 12.1758L52.5529 11.925C52.8783 11.3597 53.0723 10.7502 53.2106 9.98076L53.2927 9.46361L53.5558 7.41065C53.6147 6.89866 53.8926 6.68925 54.5816 6.76609C54.9458 6.80567 55.3328 6.93731 55.6919 7.14437C56.0499 7.35112 56.3575 7.62065 56.5742 7.91568C56.986 8.47467 56.9435 8.81931 56.5275 9.12745L55.0309 10.2674C54.1019 10.9794 53.5422 11.5237 53.1225 12.2526L52.912 12.6142C52.1588 13.9206 52.4995 15.5718 53.6945 16.4887C55.797 18.104 57.6262 20.0062 59.1381 22.1369C60.0357 23.402 61.7385 23.7907 63.0817 23.0169L63.3265 22.8751C63.9708 22.5033 64.4719 22.0207 65.0737 21.2685L65.3624 20.8977L65.9369 20.1474C66.1059 19.9286 66.2797 19.6994 66.4494 19.47C66.7577 19.0547 67.1015 19.0124 67.6624 19.424C67.9557 19.6401 68.2255 19.9483 68.4326 20.3068C68.6394 20.6641 68.7711 21.0512 68.8115 21.4157C68.8878 22.1055 68.6788 22.3826 68.1654 22.4411L65.9297 22.7326C64.9994 22.8736 64.2963 23.0741 63.6553 23.4435L63.2916 23.6545C61.9926 24.4035 61.4614 25.9998 62.0324 27.3906C63.0324 29.8256 63.6672 32.3975 63.9144 35.0174C64.0614 36.5619 65.341 37.7469 66.8904 37.7469H67.1793C67.9842 37.7469 68.6606 37.5677 69.6906 37.1515L70.8046 36.6899C71.0597 36.5849 71.3246 36.4735 71.5861 36.3601C72.0608 36.1542 72.3802 36.2896 72.6588 36.9254C72.8055 37.2591 72.8848 37.6606 72.8848 38.0755C72.8848 38.4902 72.8056 38.8909 72.6589 39.2252C72.3802 39.8609 72.0602 39.9966 71.5859 39.7909L71.1929 39.6229L70.0477 39.1471C68.8093 38.6254 68.0737 38.4041 67.1793 38.4041H66.7658C65.2618 38.4041 64.0029 39.5232 63.8034 41.0158C63.4569 43.6057 62.7241 46.1414 61.615 48.5512C60.9654 49.9607 61.4818 51.6306 62.8263 52.4052L63.0772 52.5508C63.6405 52.8758 64.2494 53.0702 65.0156 53.2083L65.625 53.3033L66.4049 53.4022L66.9376 53.4753L67.5901 53.5548C68.1039 53.6138 68.3129 53.8909 68.236 54.5807C68.1956 54.9447 68.0638 55.3322 67.857 55.6902C67.6515 56.0467 67.3812 56.355 67.0854 56.5729C66.5263 56.9842 66.1829 56.942 65.8751 56.5259L65.3895 55.8845L64.735 55.0301C64.0216 54.1003 63.4785 53.5416 62.7509 53.1212L62.3834 52.9091C61.0808 52.158 59.4299 52.4981 58.5128 53.6918C56.8998 55.7937 54.9974 57.6234 52.8651 59.1372C51.5989 60.0344 51.2098 61.7383 51.986 63.081L52.126 63.3236C52.4999 63.9717 52.984 64.474 53.7394 65.0777L54.8547 65.9359C55.0735 66.1049 55.3028 66.2787 55.5321 66.4484C55.9472 66.7559 55.9894 67.0997 55.5777 67.6592C55.3606 67.9548 55.0528 68.2246 54.6944 68.4321C54.3363 68.6381 53.9488 68.7699 53.5885 68.8092C52.9539 68.8798 52.6685 68.7104 52.5803 68.2862L52.2831 66.0222L52.2695 65.9312C52.1281 64.9981 51.9277 64.2952 51.5569 63.6534L51.3496 63.2928C50.598 61.9911 49.002 61.4596 47.6109 62.0301C45.1788 63.0299 42.6071 63.6647 39.9842 63.9134C38.4412 64.0586 37.2552 65.3392 37.2552 66.8882V67.1771C37.2552 67.9828 37.4345 68.6596 37.8506 69.6896L38.3116 70.803C38.4166 71.0588 38.5285 71.3244 38.6428 71.5867C38.8485 72.0597 38.713 72.379 38.0767 72.6577C37.7419 72.8046 37.3411 72.8837 36.9255 72.8837C36.5119 72.8837 36.1111 72.8045 35.7769 72.6579C35.1402 72.379 35.0047 72.0597 35.2108 71.5859L35.4484 71.0273L35.8551 70.0467C36.3767 68.8084 36.598 68.0723 36.598 67.1771V66.7647C36.598 65.2603 35.4785 64.0021 33.9865 63.8025C31.3961 63.456 28.8614 62.7234 26.451 61.614C25.0405 60.9648 23.3721 61.4804 22.5973 62.8237L22.4503 63.0779C22.1244 63.6407 21.9299 64.2513 21.7918 65.0228L21.6978 65.6295L21.6 66.404L21.4899 67.2239L21.4464 67.5875C21.3878 68.1021 21.1111 68.3107 20.4214 68.2339C20.0567 68.1942 19.67 68.0628 19.3119 67.856C18.9534 67.649 18.6453 67.3792 18.4281 67.0844C18.0176 66.5257 18.0601 66.1804 18.4756 65.8726L19.9768 64.7293C20.9017 64.0196 21.4602 63.4764 21.8804 62.7508L22.0931 62.3803C22.8442 61.0808 22.5044 59.4293 21.3103 58.5118C19.2084 56.8988 17.3787 54.9964 15.8649 52.8641C14.9659 51.5977 13.265 51.2091 11.9217 51.9847L11.6792 52.1239C11.0302 52.4989 10.529 52.982 9.92457 53.7378L9.06547 54.8533C8.89696 55.0717 8.72337 55.3007 8.55373 55.53C8.24585 55.9456 7.90088 55.9881 7.3418 55.5767C7.04711 55.3603 6.77839 55.0531 6.57057 54.6932C6.36494 54.3366 6.23271 53.9481 6.19134 53.5829C6.1153 52.895 6.32411 52.6179 6.83789 52.5588L7.4915 52.4793L9.07474 52.2679C10.0057 52.1266 10.7079 51.9263 11.3493 51.5562L11.7107 51.3471C13.0113 50.5954 13.543 48.9989 12.9703 47.6084C11.9721 45.1777 11.3373 42.6058 11.0876 39.9817C10.9424 38.4391 9.66291 37.2542 8.11389 37.2542H7.82499C7.01937 37.2542 6.34253 37.4335 5.31254 37.8496L4.19971 38.3102C3.94422 38.4149 3.679 38.5263 3.41706 38.6399C2.94243 38.8463 2.62295 38.7109 2.34424 38.0754C2.19691 37.7395 2.11725 37.3385 2.11725 36.9256C2.11725 36.5117 2.19687 36.1106 2.3442 35.7748C2.62295 35.1392 2.94243 35.0037 3.41626 35.2098L3.8107 35.3783L4.95547 35.8529C6.19371 36.3745 6.92986 36.5959 7.82499 36.5959H8.23738C9.74167 36.5959 10.9983 35.4779 11.1995 33.9854C11.5446 31.3983 12.2774 28.8632 13.3872 26.4496C14.0375 25.0405 13.5222 23.3702 12.1785 22.5951L11.9242 22.4482C11.3611 22.1228 10.7514 21.9288 9.97978 21.7906L9.54861 21.7211L7.75906 21.4865L7.4133 21.4454C6.89982 21.3869 6.69085 21.1095 6.76718 20.4196C6.80738 20.057 6.93954 19.6689 7.14705 19.3081C7.35236 18.952 7.6217 18.6446 7.91668 18.4279C8.47629 18.0162 8.82083 18.0586 9.12791 18.4739L10.2678 19.9696C10.9815 20.9004 11.5241 21.4587 12.2527 21.8791L12.6173 22.0902C13.9204 22.8433 15.5735 22.5023 16.4898 21.3074C18.1039 19.2067 20.0067 17.377 22.1381 15.8639C23.4032 14.9645 23.7927 13.2634 23.0191 11.9204L22.8753 11.6732C22.5041 11.0307 22.0227 10.531 21.2701 9.92853L20.1492 9.06467C19.9311 8.89616 19.7023 8.72244 19.4734 8.5525C19.0566 8.24426 19.0139 7.89933 19.4247 7.34021C19.642 7.04551 19.95 6.77582 20.3071 6.56998C20.6657 6.36282 21.0532 6.23101 21.4169 6.1906C22.1073 6.11369 22.3848 6.32282 22.4432 6.83579L22.5229 7.49032L22.7321 9.06233C22.8733 9.9976 23.0742 10.703 23.4459 11.3472L23.6543 11.7084C24.4064 13.0098 26.0022 13.5407 27.3927 12.9698C29.8227 11.9703 32.3953 11.3353 35.0189 11.0866C36.563 10.9415 37.7479 9.66195 37.7479 8.11176V7.82399C37.7479 7.01838 37.5686 6.34154 37.1525 5.31155L36.6915 4.19812C36.5865 3.94232 36.4747 3.67677 36.3604 3.41448C36.1554 2.94178 36.2913 2.62134 36.926 2.34358C37.2616 2.19602 37.6634 2.11625 38.0765 2.11625ZM28.6127 18.6654C24.5924 18.6654 21.3328 21.9245 21.3328 25.9453C21.3328 29.9652 24.5928 33.2252 28.6127 33.2252C32.6327 33.2252 35.8927 29.9652 35.8927 25.9453C35.8927 21.9245 32.6331 18.6654 28.6127 18.6654ZM28.6127 20.7816C31.4644 20.7816 33.7764 23.0934 33.7764 25.9453C33.7764 28.7965 31.4639 31.1089 28.6127 31.1089C25.7615 31.1089 23.4491 28.7965 23.4491 25.9453C23.4491 23.0934 25.7611 20.7816 28.6127 20.7816ZM47.7231 46.219C44.9297 46.219 42.6647 48.4835 42.6647 51.2768C42.6647 54.0702 44.9297 56.3347 47.7231 56.3347C50.5163 56.3347 52.7803 54.0703 52.7803 51.2768C52.7803 48.4834 50.5163 46.219 47.7231 46.219ZM47.7231 48.3352C49.3474 48.3352 50.6641 49.6521 50.6641 51.2768C50.6641 52.9016 49.3474 54.2184 47.7231 54.2184C46.0984 54.2184 44.7809 52.9013 44.7809 51.2768C44.7809 49.6524 46.0984 48.3352 47.7231 48.3352ZM17.7775 42.3886C17.7775 39.5951 20.0419 37.3307 22.8354 37.3307C25.6289 37.3307 27.8932 39.5951 27.8932 42.3886C27.8932 45.182 25.6289 47.4464 22.8354 47.4464C20.0419 47.4464 17.7775 45.182 17.7775 42.3886ZM25.777 42.3886C25.777 40.7638 24.4601 39.447 22.8354 39.447C21.2107 39.447 19.8938 40.7638 19.8938 42.3886C19.8938 44.0133 21.2107 45.3301 22.8354 45.3301C24.4601 45.3301 25.777 44.0133 25.777 42.3886ZM38.8337 37.3307C36.0405 37.3307 33.7764 39.5951 33.7764 42.3886C33.7764 45.182 36.0405 47.4464 38.8337 47.4464C41.627 47.4464 43.8921 45.1819 43.8921 42.3886C43.8921 39.5952 41.627 37.3307 38.8337 37.3307ZM38.8337 39.447C40.4584 39.447 41.7758 40.7641 41.7758 42.3886C41.7758 44.013 40.4584 45.3301 38.8337 45.3301C37.2093 45.3301 35.8927 44.0133 35.8927 42.3886C35.8927 40.7638 37.2093 39.447 38.8337 39.447ZM50.6641 39.7221C50.6641 37.42 52.5305 35.5531 54.8331 35.5531C57.1357 35.5531 59.0021 37.42 59.0021 39.7221C59.0021 42.0242 57.1357 43.8911 54.8331 43.8911C52.5305 43.8911 50.6641 42.0242 50.6641 39.7221ZM56.8859 39.7221C56.8859 38.5886 55.9668 37.6693 54.8331 37.6693C53.6994 37.6693 52.7803 38.5886 52.7803 39.7221C52.7803 40.8555 53.6994 41.7748 54.8331 41.7748C55.9668 41.7748 56.8859 40.8555 56.8859 39.7221ZM37.0566 53.3296C35.245 53.3296 33.7764 54.7975 33.7764 56.6092C33.7764 58.421 35.245 59.89 37.0566 59.89C38.8682 59.89 40.3368 58.421 40.3368 56.6092C40.3368 54.7975 38.8682 53.3296 37.0566 53.3296ZM37.0566 55.4458C37.6996 55.4458 38.2205 55.9665 38.2205 56.6092C38.2205 57.2523 37.6993 57.7737 37.0566 57.7737C36.4139 57.7737 35.8927 57.2523 35.8927 56.6092C35.8927 55.9665 36.4135 55.4458 37.0566 55.4458ZM43.5535 27.278C43.5535 25.4661 45.0213 23.9983 46.8331 23.9983C48.645 23.9983 50.1139 25.4662 50.1139 27.278C50.1139 29.0898 48.645 30.5587 46.8331 30.5587C45.0214 30.5587 43.5535 29.0898 43.5535 27.278ZM47.9976 27.278C47.9976 26.6353 47.4765 26.1146 46.8331 26.1146C46.1901 26.1146 45.6697 26.6349 45.6697 27.278C45.6697 27.9214 46.1905 28.4424 46.8331 28.4424C47.4762 28.4424 47.9976 27.921 47.9976 27.278Z" fill="white"/>
</svg>
