<svg width="51" height="51" viewBox="0 0 51 51" fill="none" xmlns="http://www.w3.org/2000/svg">
<path fill-rule="evenodd" clip-rule="evenodd" d="M50.1935 25.0261C49.8371 24.2128 49.1897 23.9839 48.5238 24.2727C48.1291 24.444 47.7858 24.5807 47.7858 24.5807C47.1706 24.8372 46.5002 25.1536 45.822 25.1536H45.6262C44.945 25.1536 44.3874 24.6306 44.3229 23.9532C44.1485 22.1054 43.7008 20.2929 42.9965 18.578C42.7462 17.9682 42.975 17.2678 43.5464 16.9383L43.7914 16.7962C44.3789 16.4575 45.1185 16.3961 45.779 16.3108C45.779 16.3108 46.1446 16.2571 46.5716 16.2079C47.2935 16.1258 47.7389 15.6028 47.6414 14.7211C47.6022 14.3678 47.4786 14.0107 47.2927 13.6897C47.1069 13.3679 46.8596 13.0822 46.5739 12.8717C45.8581 12.3464 45.1838 12.4708 44.7507 13.0545C44.4949 13.4001 44.2653 13.6904 44.2653 13.6904C43.8613 14.2196 43.4389 14.8294 42.8506 15.1688L42.6863 15.2641C42.0957 15.6043 41.3499 15.4292 40.956 14.8739C39.9015 13.3878 38.6159 12.0423 37.1175 10.8911C36.593 10.4886 36.4409 9.76595 36.7704 9.19456L36.9147 8.9465C37.2534 8.35821 37.8632 7.93581 38.3932 7.53184C38.3932 7.53184 38.6827 7.30221 39.0283 7.04646C39.612 6.61408 39.7371 5.93824 39.2111 5.224C39.0006 4.93754 38.7149 4.69024 38.3932 4.50438C38.0721 4.3193 37.715 4.19488 37.3617 4.15648C36.4801 4.05818 35.9571 4.50438 35.8741 5.22554C35.8257 5.65254 35.7727 6.01811 35.7727 6.01811C35.6867 6.67936 35.6253 7.41818 35.2866 8.00646L35.1867 8.1785C34.8465 8.76909 34.1139 8.99027 33.4948 8.70611C31.7745 7.9143 29.9851 7.40358 28.1826 7.16243C27.5267 7.07488 27.0337 6.52653 27.0337 5.86605V5.5865C27.0337 4.90758 27.3501 4.23712 27.6066 3.62195C27.6066 3.62195 27.7433 3.27866 27.9146 2.8839C28.2041 2.21805 27.9737 1.56986 27.1611 1.21427C26.8363 1.07142 26.4653 1 26.0936 1C25.7227 1 25.351 1.07142 25.0261 1.21427C24.2136 1.56986 23.9839 2.21805 24.2727 2.8839C24.4447 3.27866 24.5807 3.62195 24.5807 3.62195C24.8372 4.23712 25.1536 4.90758 25.1536 5.5865V5.78157C25.1536 6.46278 24.6314 7.02035 23.9532 7.0841C22.1062 7.2592 20.2929 7.70618 18.5788 8.4112C17.969 8.66157 17.2685 8.4327 16.9383 7.86131L16.797 7.61632C16.4575 7.02803 16.3961 6.28998 16.3108 5.62874C16.3108 5.62874 16.2571 5.26317 16.2087 4.83539C16.1265 4.11424 15.6035 3.66803 14.7211 3.76634C14.3686 3.8055 14.0115 3.92915 13.6897 4.11501C13.3686 4.3001 13.0829 4.54739 12.8717 4.83386C12.3464 5.54886 12.4716 6.2247 13.0553 6.65632C13.4009 6.91283 13.6904 7.1417 13.6904 7.1417C14.2196 7.54643 14.8294 7.96883 15.1688 8.55635L15.2648 8.72147C15.6051 9.31206 15.4292 10.057 14.8739 10.4518C13.3886 11.5062 12.0423 12.7919 10.8911 14.2902C10.4894 14.814 9.76595 14.9668 9.19456 14.6366L8.9465 14.493C8.35821 14.1535 7.93658 13.5445 7.53184 13.0146C7.53184 13.0146 7.30221 12.7251 7.04646 12.3795C6.61485 11.7958 5.93901 11.6706 5.224 12.1967C4.93754 12.4071 4.69024 12.6928 4.50515 13.0138C4.32006 13.3356 4.19565 13.6927 4.15648 14.046C4.05894 14.9277 4.50438 15.4507 5.22554 15.5329C5.65331 15.582 6.01888 15.635 6.01888 15.635C6.68013 15.721 7.41894 15.7817 8.00646 16.1212L8.17926 16.221C8.76909 16.5612 8.99104 17.2939 8.70534 17.9129C7.9143 19.6332 7.40358 21.4227 7.1632 23.2252C7.07488 23.8803 6.5273 24.3733 5.86605 24.3733H5.5865C4.90758 24.3733 4.23712 24.0569 3.62195 23.8004C3.62195 23.8004 3.27866 23.6644 2.8839 23.4932C2.21805 23.2036 1.57062 23.4333 1.21427 24.2458C1.07142 24.5715 1 24.9424 1 25.3141C1 25.6851 1.07142 26.056 1.21427 26.3816C1.57062 27.1942 2.21805 27.4238 2.8839 27.1343C3.27866 26.963 3.62195 26.8271 3.62195 26.8271C4.23712 26.5706 4.90758 26.2541 5.5865 26.2541H5.78234C6.46278 26.2541 7.02035 26.7764 7.0841 27.4538C7.25997 29.3016 7.70694 31.114 8.4112 32.829C8.66234 33.4388 8.4327 34.1392 7.86131 34.4694L7.61709 34.6107C7.0288 34.9502 6.28998 35.0109 5.6295 35.0969C5.6295 35.0969 5.26317 35.1507 4.83539 35.199C4.11424 35.282 3.6688 35.8042 3.76634 36.6867C3.80627 37.0392 3.92992 37.3963 4.11501 37.7173C4.30086 38.0391 4.54739 38.3248 4.83386 38.5352C5.54886 39.0613 6.2247 38.9361 6.65709 38.3524C6.91283 38.0068 7.1417 37.7173 7.1417 37.7173C7.54643 37.1874 7.96883 36.5784 8.55635 36.2389L8.72224 36.1437C9.31283 35.8027 10.057 35.9778 10.4518 36.5338C11.5062 38.0191 12.7919 39.3654 14.291 40.5159C14.8148 40.9183 14.9668 41.641 14.6366 42.2124L14.4938 42.4612C14.1535 43.0488 13.5445 43.4712 13.0154 43.8751C13.0154 43.8751 12.7251 44.1048 12.3795 44.3605C11.7958 44.7929 11.6714 45.4687 12.1967 46.1837C12.4071 46.4694 12.6928 46.7167 13.0146 46.9026C13.3364 47.0884 13.6935 47.2121 14.046 47.2505C14.9284 47.3488 15.4507 46.9026 15.5329 46.1814C15.582 45.7544 15.6358 45.3889 15.6358 45.3889C15.721 44.7276 15.7817 43.9888 16.1219 43.4013L16.2218 43.2285C16.562 42.6387 17.2939 42.4167 17.9129 42.7016C19.6332 43.4934 21.4227 44.0034 23.2259 44.2445C23.8803 44.3321 24.3741 44.8804 24.3741 45.5417V45.8212C24.3741 46.5002 24.0577 47.1706 23.8011 47.7858C23.8011 47.7858 23.6644 48.1291 23.4932 48.5238C23.2036 49.1897 23.4333 49.8371 24.2466 50.1935C24.5722 50.3363 24.9432 50.407 25.3133 50.407C25.6851 50.407 26.056 50.3363 26.3816 50.1935C27.1949 49.8371 27.4246 49.1897 27.135 48.5238C26.963 48.1291 26.8271 47.7858 26.8271 47.7858C26.5706 47.1706 26.2541 46.5002 26.2541 45.8212V45.6254C26.2541 44.945 26.7771 44.3866 27.4545 44.3229C29.3016 44.1478 31.114 43.7008 32.829 42.9958C33.4395 42.7454 34.14 42.975 34.4694 43.5457L34.6107 43.7914C34.9502 44.3789 35.0109 45.1178 35.0969 45.7782C35.0969 45.7782 35.1507 46.1446 35.1998 46.5716C35.282 47.2927 35.8042 47.7389 36.6867 47.6406C37.0392 47.6022 37.3963 47.4778 37.7181 47.2927C38.0391 47.1069 38.3248 46.8596 38.5352 46.5731C39.0613 45.8581 38.9369 45.183 38.3532 44.7507C38.0076 44.4949 37.7173 44.2653 37.7173 44.2653C37.1874 43.8613 36.5784 43.4389 36.2389 42.8506L36.1437 42.6855C35.8027 42.0957 35.9778 41.3499 36.5338 40.956C38.0191 39.9015 39.3654 38.6159 40.5159 37.1167C40.9183 36.593 41.641 36.4409 42.2124 36.7704L42.4612 36.914C43.0488 37.2534 43.4712 37.8625 43.8759 38.3924C43.8759 38.3924 44.1048 38.6827 44.3613 39.0275C44.7937 39.612 45.4687 39.7364 46.1837 39.2103C46.4694 38.9999 46.7175 38.7142 46.9026 38.3932C47.0884 38.0714 47.2121 37.7142 47.2513 37.3617C47.3496 36.4793 46.9034 35.9571 46.1814 35.8741C45.7552 35.8257 45.3889 35.772 45.3889 35.772C44.7284 35.6867 43.9896 35.6253 43.4013 35.2858L43.2292 35.186C42.6387 34.8458 42.4167 34.1131 42.7016 33.4948C43.4934 31.7745 44.0034 29.9843 44.2445 28.1818C44.3321 27.5267 44.8812 27.0337 45.5417 27.0337H45.822C46.5002 27.0337 47.1706 27.3501 47.7858 27.6066C47.7858 27.6066 48.1291 27.7433 48.5238 27.9146C49.1897 28.2033 49.8371 27.9737 50.1935 27.1611C50.3363 26.8355 50.407 26.4646 50.407 26.0936C50.407 25.7227 50.3363 25.351 50.1935 25.0261Z" fill="white"/>
<path fill-rule="evenodd" clip-rule="evenodd" d="M23.6142 17.8673C23.6142 20.1752 21.7426 22.0468 19.4348 22.0468C17.1269 22.0468 15.2553 20.1752 15.2553 17.8673C15.2553 15.5587 17.1269 13.6879 19.4348 13.6879C21.7426 13.6879 23.6142 15.5587 23.6142 17.8673Z" stroke="#01BAB5"/>
<path fill-rule="evenodd" clip-rule="evenodd" d="M35.3698 35.2449C35.3698 36.7855 34.121 38.0343 32.5804 38.0343C31.0398 38.0343 29.7902 36.7855 29.7902 35.2449C29.7902 33.7043 31.0398 32.4555 32.5804 32.4555C34.121 32.4555 35.3698 33.7043 35.3698 35.2449Z" stroke="#01BAB5"/>
<path fill-rule="evenodd" clip-rule="evenodd" d="M18.0448 29.0682C18.0448 30.6089 16.796 31.8576 15.2554 31.8576C13.7148 31.8576 12.466 30.6089 12.466 29.0682C12.466 27.5276 13.7148 26.2789 15.2554 26.2789C16.796 26.2789 18.0448 27.5276 18.0448 29.0682Z" stroke="#01BAB5"/>
<path fill-rule="evenodd" clip-rule="evenodd" d="M29.1935 29.0682C29.1935 30.6089 27.944 31.8576 26.4034 31.8576C24.8628 31.8576 23.614 30.6089 23.614 29.0682C23.614 27.5276 24.8628 26.2789 26.4034 26.2789C27.944 26.2789 29.1935 27.5276 29.1935 29.0682Z" stroke="#01BAB5"/>
<path fill-rule="evenodd" clip-rule="evenodd" d="M39.6627 27.3279C39.6627 28.5129 38.702 29.4745 37.5162 29.4745C36.3304 29.4745 35.3696 28.5129 35.3696 27.3279C35.3696 26.1429 36.3304 25.1813 37.5162 25.1813C38.702 25.1813 39.6627 26.1429 39.6627 27.3279Z" stroke="#01BAB5"/>
<path fill-rule="evenodd" clip-rule="evenodd" d="M26.7027 38.2599C26.7027 39.1285 25.9985 39.8328 25.1299 39.8328C24.2613 39.8328 23.557 39.1285 23.557 38.2599C23.557 37.3913 24.2613 36.6878 25.1299 36.6878C25.9985 36.6878 26.7027 37.3913 26.7027 38.2599Z" stroke="#01BAB5"/>
<path fill-rule="evenodd" clip-rule="evenodd" d="M33.4647 18.5162C33.4647 19.3848 32.7605 20.0891 31.8919 20.0891C31.0233 20.0891 30.3198 19.3848 30.3198 18.5162C30.3198 17.6476 31.0233 16.9441 31.8919 16.9441C32.7605 16.9441 33.4647 17.6476 33.4647 18.5162Z" stroke="#01BAB5"/>
<path fill-rule="evenodd" clip-rule="evenodd" d="M50.1935 25.0261C49.8371 24.2128 49.1897 23.9839 48.5238 24.2727C48.1291 24.444 47.7858 24.5807 47.7858 24.5807C47.1706 24.8372 46.5002 25.1536 45.822 25.1536H45.6262C44.945 25.1536 44.3874 24.6306 44.3229 23.9532C44.1485 22.1054 43.7008 20.2929 42.9965 18.578C42.7462 17.9682 42.975 17.2678 43.5464 16.9383L43.7914 16.7962C44.3789 16.4575 45.1185 16.3961 45.779 16.3108C45.779 16.3108 46.1446 16.2571 46.5716 16.2079C47.2935 16.1258 47.7389 15.6028 47.6414 14.7211C47.6022 14.3678 47.4786 14.0107 47.2927 13.6897C47.1069 13.3679 46.8596 13.0822 46.5739 12.8717C45.8581 12.3464 45.1838 12.4708 44.7507 13.0545C44.4949 13.4001 44.2653 13.6904 44.2653 13.6904C43.8613 14.2196 43.4389 14.8294 42.8506 15.1688L42.6863 15.2641C42.0957 15.6043 41.3499 15.4292 40.956 14.8739C39.9015 13.3878 38.6159 12.0423 37.1175 10.8911C36.593 10.4886 36.4409 9.76595 36.7704 9.19456L36.9147 8.9465C37.2534 8.35821 37.8632 7.93581 38.3932 7.53184C38.3932 7.53184 38.6827 7.30221 39.0283 7.04646C39.612 6.61408 39.7371 5.93824 39.2111 5.224C39.0006 4.93754 38.7149 4.69024 38.3932 4.50438C38.0721 4.3193 37.715 4.19488 37.3617 4.15648C36.4801 4.05818 35.9571 4.50438 35.8741 5.22554C35.8257 5.65254 35.7727 6.01811 35.7727 6.01811C35.6867 6.67936 35.6253 7.41818 35.2866 8.00646L35.1867 8.1785C34.8465 8.76909 34.1139 8.99027 33.4948 8.70611C31.7745 7.9143 29.9851 7.40358 28.1826 7.16243C27.5267 7.07488 27.0337 6.52653 27.0337 5.86605V5.5865C27.0337 4.90758 27.3501 4.23712 27.6066 3.62195C27.6066 3.62195 27.7433 3.27866 27.9146 2.8839C28.2041 2.21805 27.9737 1.56986 27.1611 1.21427C26.8363 1.07142 26.4653 1 26.0936 1C25.7227 1 25.351 1.07142 25.0261 1.21427C24.2136 1.56986 23.9839 2.21805 24.2727 2.8839C24.4447 3.27866 24.5807 3.62195 24.5807 3.62195C24.8372 4.23712 25.1536 4.90758 25.1536 5.5865V5.78157C25.1536 6.46278 24.6314 7.02035 23.9532 7.0841C22.1062 7.2592 20.2929 7.70618 18.5788 8.4112C17.969 8.66157 17.2685 8.4327 16.9383 7.86131L16.797 7.61632C16.4575 7.02803 16.3961 6.28998 16.3108 5.62874C16.3108 5.62874 16.2571 5.26317 16.2087 4.83539C16.1265 4.11424 15.6035 3.66803 14.7211 3.76634C14.3686 3.8055 14.0115 3.92915 13.6897 4.11501C13.3686 4.3001 13.0829 4.54739 12.8717 4.83386C12.3464 5.54886 12.4716 6.2247 13.0553 6.65632C13.4009 6.91283 13.6904 7.1417 13.6904 7.1417C14.2196 7.54643 14.8294 7.96883 15.1688 8.55635L15.2648 8.72147C15.6051 9.31206 15.4292 10.057 14.8739 10.4518C13.3886 11.5062 12.0423 12.7919 10.8911 14.2902C10.4894 14.814 9.76595 14.9668 9.19456 14.6366L8.9465 14.493C8.35821 14.1535 7.93658 13.5445 7.53184 13.0146C7.53184 13.0146 7.30221 12.7251 7.04646 12.3795C6.61485 11.7958 5.93901 11.6706 5.224 12.1967C4.93754 12.4071 4.69024 12.6928 4.50515 13.0138C4.32006 13.3356 4.19565 13.6927 4.15648 14.046C4.05894 14.9277 4.50438 15.4507 5.22554 15.5329C5.65331 15.582 6.01888 15.635 6.01888 15.635C6.68013 15.721 7.41894 15.7817 8.00646 16.1212L8.17926 16.221C8.76909 16.5612 8.99104 17.2939 8.70534 17.9129C7.9143 19.6332 7.40358 21.4227 7.1632 23.2252C7.07488 23.8803 6.5273 24.3733 5.86605 24.3733H5.5865C4.90758 24.3733 4.23712 24.0569 3.62195 23.8004C3.62195 23.8004 3.27866 23.6644 2.8839 23.4932C2.21805 23.2036 1.57062 23.4333 1.21427 24.2458C1.07142 24.5715 1 24.9424 1 25.3141C1 25.6851 1.07142 26.056 1.21427 26.3816C1.57062 27.1942 2.21805 27.4238 2.8839 27.1343C3.27866 26.963 3.62195 26.8271 3.62195 26.8271C4.23712 26.5706 4.90758 26.2541 5.5865 26.2541H5.78234C6.46278 26.2541 7.02035 26.7764 7.0841 27.4538C7.25997 29.3016 7.70694 31.114 8.4112 32.829C8.66234 33.4388 8.4327 34.1392 7.86131 34.4694L7.61709 34.6107C7.0288 34.9502 6.28998 35.0109 5.6295 35.0969C5.6295 35.0969 5.26317 35.1507 4.83539 35.199C4.11424 35.282 3.6688 35.8042 3.76634 36.6867C3.80627 37.0392 3.92992 37.3963 4.11501 37.7173C4.30086 38.0391 4.54739 38.3248 4.83386 38.5352C5.54886 39.0613 6.2247 38.9361 6.65709 38.3524C6.91283 38.0068 7.1417 37.7173 7.1417 37.7173C7.54643 37.1874 7.96883 36.5784 8.55635 36.2389L8.72224 36.1437C9.31283 35.8027 10.057 35.9778 10.4518 36.5338C11.5062 38.0191 12.7919 39.3654 14.291 40.5159C14.8148 40.9183 14.9668 41.641 14.6366 42.2124L14.4938 42.4612C14.1535 43.0488 13.5445 43.4712 13.0154 43.8751C13.0154 43.8751 12.7251 44.1048 12.3795 44.3605C11.7958 44.7929 11.6714 45.4687 12.1967 46.1837C12.4071 46.4694 12.6928 46.7167 13.0146 46.9026C13.3364 47.0884 13.6935 47.2121 14.046 47.2505C14.9284 47.3488 15.4507 46.9026 15.5329 46.1814C15.582 45.7544 15.6358 45.3889 15.6358 45.3889C15.721 44.7276 15.7817 43.9888 16.1219 43.4013L16.2218 43.2285C16.562 42.6387 17.2939 42.4167 17.9129 42.7016C19.6332 43.4934 21.4227 44.0034 23.2259 44.2445C23.8803 44.3321 24.3741 44.8804 24.3741 45.5417V45.8212C24.3741 46.5002 24.0577 47.1706 23.8011 47.7858C23.8011 47.7858 23.6644 48.1291 23.4932 48.5238C23.2036 49.1897 23.4333 49.8371 24.2466 50.1935C24.5722 50.3363 24.9432 50.407 25.3133 50.407C25.6851 50.407 26.056 50.3363 26.3816 50.1935C27.1949 49.8371 27.4246 49.1897 27.135 48.5238C26.963 48.1291 26.8271 47.7858 26.8271 47.7858C26.5706 47.1706 26.2541 46.5002 26.2541 45.8212V45.6254C26.2541 44.945 26.7771 44.3866 27.4545 44.3229C29.3016 44.1478 31.114 43.7008 32.829 42.9958C33.4395 42.7454 34.14 42.975 34.4694 43.5457L34.6107 43.7914C34.9502 44.3789 35.0109 45.1178 35.0969 45.7782C35.0969 45.7782 35.1507 46.1446 35.1998 46.5716C35.282 47.2927 35.8042 47.7389 36.6867 47.6406C37.0392 47.6022 37.3963 47.4778 37.7181 47.2927C38.0391 47.1069 38.3248 46.8596 38.5352 46.5731C39.0613 45.8581 38.9369 45.183 38.3532 44.7507C38.0076 44.4949 37.7173 44.2653 37.7173 44.2653C37.1874 43.8613 36.5784 43.4389 36.2389 42.8506L36.1437 42.6855C35.8027 42.0957 35.9778 41.3499 36.5338 40.956C38.0191 39.9015 39.3654 38.6159 40.5159 37.1167C40.9183 36.593 41.641 36.4409 42.2124 36.7704L42.4612 36.914C43.0488 37.2534 43.4712 37.8625 43.8759 38.3924C43.8759 38.3924 44.1048 38.6827 44.3613 39.0275C44.7937 39.612 45.4687 39.7364 46.1837 39.2103C46.4694 38.9999 46.7175 38.7142 46.9026 38.3932C47.0884 38.0714 47.2121 37.7142 47.2513 37.3617C47.3496 36.4793 46.9034 35.9571 46.1814 35.8741C45.7552 35.8257 45.3889 35.772 45.3889 35.772C44.7284 35.6867 43.9896 35.6253 43.4013 35.2858L43.2292 35.186C42.6387 34.8458 42.4167 34.1131 42.7016 33.4948C43.4934 31.7745 44.0034 29.9843 44.2445 28.1818C44.3321 27.5267 44.8812 27.0337 45.5417 27.0337H45.822C46.5002 27.0337 47.1706 27.3501 47.7858 27.6066C47.7858 27.6066 48.1291 27.7433 48.5238 27.9146C49.1897 28.2033 49.8371 27.9737 50.1935 27.1611C50.3363 26.8355 50.407 26.4646 50.407 26.0936C50.407 25.7227 50.3363 25.351 50.1935 25.0261Z" stroke="#01BAB5"/>
</svg>
